<svg width="301" height="301" viewBox="0 0 301 301" fill="none" xmlns="http://www.w3.org/2000/svg">
<path d="M186.29 245.145C178.221 269.964 138.006 279.105 96.4431 265.592C54.7477 251.818 27.5966 220.775 35.6017 196.153C36.05 194.774 36.6953 193.459 37.2765 192.342C48.054 170.581 86.1863 163.159 125.582 175.967C164.978 188.775 191.454 217.203 187.31 241.338C186.99 242.323 186.739 243.766 186.29 245.145Z" fill="#F7AD1A"/>
<path d="M187.178 241.077C184.203 246.208 178.396 249.33 172.732 254.022C167.068 258.715 160.213 261.713 152.334 259.151C148.394 257.871 143.548 258.037 139.367 259.509C132.704 261.917 125.031 260.729 118.979 257.237C113.651 254.198 107.023 252.479 100.473 252.527C89.8606 252.344 81.9077 248.669 75.2405 241.71C69.2331 235.401 62.2554 230.736 55.3562 227.84C45.1725 223.658 40.6721 217.403 39.4223 207.849C38.7236 201.959 36.5917 197.128 37.0798 192.277C47.8573 170.516 85.9895 163.094 125.385 175.902C164.845 188.514 191.322 216.942 187.178 241.077Z" fill="#EE8034"/>
<path d="M190.39 232.538C188.149 239.433 181.426 242.692 174.851 248.177C169.187 252.87 162.332 255.868 154.453 253.307C150.513 252.026 145.667 252.193 141.486 253.665C134.626 256.008 127.15 254.884 121.098 251.392C115.77 248.353 109.142 246.634 102.592 246.682C91.9795 246.499 84.0266 242.824 77.3594 235.865C71.352 229.556 64.3743 224.892 57.4111 222.192C47.0305 217.946 42.5941 211.494 41.3442 201.94C40.5078 195.134 37.8442 189.259 39.7014 183.547C46.6178 162.273 85.8728 156.087 127.435 169.6C168.998 183.112 197.307 211.265 190.39 232.538Z" fill="#F7ADBB"/>
<path d="M195.143 219.927C187.074 244.746 146.922 253.69 105.36 240.177C63.7975 226.665 36.6464 195.622 44.6516 170.999C45.42 168.636 46.5825 166.4 47.9419 164.228C60.3738 144.748 96.8119 138.517 134.238 150.685C171.861 162.917 197.668 189.385 196.4 212.713C196.286 215.071 195.912 217.563 195.143 219.927Z" fill="#EE8034"/>
<path d="M196.065 211.732C183.436 231.149 146.998 237.379 109.375 225.148C71.9487 212.98 46.1415 186.512 47.3456 163.381C60.0385 143.767 96.4766 137.537 133.903 149.705C171.526 161.937 197.333 188.404 196.065 211.732Z" fill="#F7AD1A"/>
<path d="M134.743 165.877C134.875 174.85 118.357 182.112 98.0527 182.262C77.7484 182.413 61.0596 175.462 60.8635 166.687C60.7315 157.714 77.2495 150.452 97.5538 150.301C117.922 149.954 134.547 157.101 134.743 165.877Z" fill="#FFC928"/>
<path d="M148.175 192.895C147.387 192.639 146.939 194.018 147.727 194.274C148.776 194.397 149.16 193.215 148.175 192.895Z" fill="#EE8034"/>
<path d="M161.152 185.135C158.591 184.303 157.246 188.439 159.807 189.272C162.368 190.104 163.713 185.968 161.152 185.135Z" fill="#EE8034"/>
<path d="M123.837 196.744C121.276 195.911 119.995 199.851 122.556 200.684C125.117 201.516 126.595 197.641 123.837 196.744Z" fill="#EE8034"/>
<path d="M88.6907 191.634L88.4938 191.57C87.7059 191.313 87.2576 192.692 88.0455 192.948L88.2425 193.012C89.0304 193.269 89.4787 191.89 88.6907 191.634Z" fill="#EE8034"/>
<path d="M124 183.511C124 183.511 123.803 183.447 124 183.511C123.404 182.664 122.099 183.328 122.498 184.111C122.828 184.437 122.961 184.698 123.552 184.89C124.537 185.21 124.985 183.831 124 183.511Z" fill="#EE8034"/>
<path d="M142.299 160.057C141.511 159.801 141.063 161.18 141.851 161.436C142.639 161.692 143.087 160.314 142.299 160.057Z" fill="#EE8034"/>
<path d="M97.0808 201.33L96.4899 201.138C93.9292 200.306 92.6483 204.245 95.209 205.078L95.8 205.27C98.5577 206.166 99.8385 202.227 97.0808 201.33Z" fill="#EE8034"/>
<path d="M59.6226 167.155C58.8299 166.244 57.5199 166.253 56.6088 167.046C56.0867 167.312 55.6976 167.839 55.5055 168.43C55.1212 169.612 55.85 170.72 56.8349 171.04C57.8198 171.36 58.8638 170.829 59.381 169.908C60.4251 169.376 60.2825 167.805 59.6226 167.155Z" fill="#EE8034"/>
<path d="M143.321 218.543C140.761 217.71 139.416 221.847 141.977 222.679C144.798 223.379 146.079 219.439 143.321 218.543Z" fill="#EE8034"/>
<path d="M246.053 60.0377C245.521 59.2434 244.643 58.7885 243.782 58.3884C240.738 56.9372 237.581 55.6082 234.224 55.1108C230.884 54.623 227.308 54.9926 224.449 56.7851C227.573 50.9622 231.308 45.4944 235.57 40.4511C235.246 40.1601 234.904 39.8595 234.581 39.5685C230.64 42.3779 227.714 46.3593 225.296 50.548C222.877 54.7368 220.894 59.1392 218.457 63.3183C220.554 54.871 219.411 45.669 215.31 37.9765C214.334 38.2937 213.367 38.5931 212.391 38.9103C215.614 41.7204 216.549 45.9916 217.105 50.2404C217.644 54.4796 217.913 58.7092 216.912 62.8669L215.927 67.8818C216.897 64.0747 219.764 62.057 223.362 60.2995C227.482 58.2991 230.32 57.8944 234.594 57.9734C237.569 58.0335 243.831 60.3649 245.784 62.5981C246.588 62.0494 246.594 60.8143 246.053 60.0377Z" fill="#E08CB8"/>
<path d="M215.937 67.8638C215.865 68.1224 215.811 68.3907 215.774 68.6686L215.937 67.8638Z" fill="#E08CB8"/>
<path d="M220.396 58.662L111.508 146.005C111.508 146.005 114.577 157.953 125.653 168.228C134.438 176.383 151.249 185.698 151.249 185.698C151.249 185.698 168.195 194.764 179.813 197.718C194.453 201.445 206.155 197.54 206.155 197.54L220.396 58.662Z" fill="#46A5AA"/>
<path d="M212.327 90.5592C213.636 91.8228 215.108 93.0832 216.693 93.9688L217.589 85.2807C214.748 83.1604 211.795 81.1623 209.217 78.7267C207.112 76.7316 205.288 74.4308 203.805 71.9256L199.202 75.6133C203.141 80.9466 207.55 85.9628 212.327 90.5592Z" fill="#E08CB8"/>
<path d="M209.811 151.563C210.106 151.654 210.428 151.738 210.759 151.804L211.67 142.963C204.753 137.109 196.897 132.35 190.151 126.268C181.674 118.602 175.119 108.838 171.187 98.0951L161.703 105.686C169.144 114.119 175.313 123.58 182.679 132.064C190.071 140.585 199.017 148.278 209.811 151.563Z" fill="#E08CB8"/>
<path d="M208.968 169.18C208.597 168.933 208.217 168.703 207.847 168.456C195.477 160.642 183.038 152.745 172.189 142.938C163.327 134.924 155.496 125.522 150.336 114.798L139.33 123.625C153.713 149.165 176.959 169.645 204.15 180.643C205.263 181.088 206.467 181.491 207.695 181.724L208.968 169.18Z" fill="#E08CB8"/>
<path d="M192.437 84.7076C191.969 83.8795 191.53 82.9983 191.101 82.0995L183.734 87.9979C189.915 97.6035 196.863 106.731 204.472 115.233C207.182 118.268 210.064 121.283 213.711 123.062L214.801 112.415C205.861 104.542 198.248 95.1207 192.437 84.7076Z" fill="#E08CB8"/>
<path d="M139.817 170.298C143.814 175.778 147.827 181.312 152.372 186.333C156.458 188.443 169.965 195.224 179.704 197.705C182.101 198.322 184.415 198.71 186.599 198.959C186.154 198.005 185.48 197.134 184.795 196.325C178.99 189.402 171.534 184.035 165.207 177.562C153.209 165.271 145.552 149.265 133.649 136.842C132.099 135.218 130.457 133.636 129.047 131.882L118.292 140.501C119.569 142.458 120.947 144.355 122.299 146.216C128.138 154.258 133.987 162.283 139.817 170.298Z" fill="#E08CB8"/>
<path opacity="0.34" d="M141.871 136.204C139.399 138.299 136.822 140.543 135.698 143.578C134.573 146.613 135.461 150.676 138.457 151.963C140.529 152.839 142.998 152.141 144.786 150.798C146.574 149.454 147.867 147.543 149.131 145.685C158.344 132.35 169.504 120.372 182.135 110.206C184.297 108.47 191.211 100.833 184.089 101.176C179.941 101.372 173.673 109.131 170.596 111.745C161.03 119.911 151.446 128.066 141.871 136.204Z" fill="white"/>
<path opacity="0.34" d="M189.368 95.6992C189.109 96.132 188.849 96.6097 188.895 97.1163C188.96 98.0925 190.086 98.6823 191.043 98.653C192.985 98.5864 194.467 96.9616 195.719 95.4639C197.385 93.4578 206.617 84.5144 199.148 85.5398C194.707 86.1042 191.327 92.2698 189.368 95.6992Z" fill="white"/>
<path d="M241.774 75.991C242.97 70.8844 241.12 65.1741 237.133 61.7418C233.147 58.3096 227.235 57.3161 222.351 59.2444C224.744 55.7762 227.905 52.8401 231.532 50.732C233.484 49.5927 235.736 48.6624 237.98 49.0122C237.848 48.1148 237.689 47.2255 237.558 46.3282C229.136 46.4452 221.072 52.1476 218.155 60.0339C218.524 56.1515 216.285 52.294 213.077 50.0886C209.861 47.8558 205.818 47.0997 201.915 47.2683C201.183 47.3056 200.414 47.3685 199.83 47.8078C198.7 48.6606 198.84 50.3427 199.072 51.7306C202.867 49.7367 207.815 50.137 211.263 52.7026C214.711 55.2682 216.491 59.8849 215.687 64.1036L217.054 66.8211C219.197 63.308 223.617 61.5165 227.685 62.0571C231.771 62.6073 235.387 65.287 237.548 68.781C238.266 69.9516 238.861 71.2621 238.877 72.6243C238.883 74.0042 238.193 75.4406 236.937 76.0184C238.59 76.2301 240.196 76.2328 241.774 75.991Z" fill="#46A5AA"/>
</svg>
