<svg width="86" height="86" viewBox="0 0 86 86" fill="none" xmlns="http://www.w3.org/2000/svg">
<path d="M73.2441 36.4565C77.4525 45.7162 68.2925 58.9236 52.7861 65.971C37.1728 72.9783 21.1992 71.1937 17.0242 62.0074C16.7904 61.493 16.6301 60.9452 16.5032 60.4708C13.8781 51.3782 22.8911 39.213 37.5891 32.533C52.2871 25.853 67.3789 27.063 72.536 35.0935C72.703 35.461 73.0103 35.942 73.2441 36.4565Z" fill="#78CCCA"/>
<path d="M72.4292 35.0533C72.9234 37.3114 72.0748 39.7365 71.6805 42.5758C71.2862 45.4151 70.1036 48.0806 67.164 49.4166C65.6942 50.0846 64.3446 51.4074 63.5294 52.9305C62.2466 55.3756 59.7279 57.0524 57.0689 57.6401C54.7373 58.1678 52.3789 59.417 50.5082 61.1539C47.4082 63.8928 44.1546 64.9282 40.4067 64.6808C37.0196 64.4468 33.7861 64.941 31.0402 65.9229C27.0117 67.3992 24.0722 66.7844 21.1996 64.3658C19.4493 62.8558 17.5653 62.0273 16.4297 60.5041C13.8046 51.4114 22.8176 39.2462 37.5156 32.5662C52.1802 25.8127 67.272 27.0227 72.4292 35.0533Z" fill="#5EC4BA"/>
<path d="M71.1065 31.7527C72.2755 34.3249 71.1997 37.0305 70.7519 40.3375C70.3576 43.1768 69.175 45.8424 66.2354 47.1784C64.7656 47.8464 63.416 49.1691 62.6009 50.6922C61.2446 53.1707 58.7993 54.8141 56.1403 55.4018C53.8087 55.9295 51.4503 57.1787 49.5796 58.9156C46.4796 61.6545 43.226 62.6899 39.4781 62.4425C36.091 62.2085 32.8575 62.7027 30.1451 63.7581C26.043 65.2678 23.0701 64.5795 20.1975 62.1609C18.1666 60.4238 15.8551 59.4349 14.8865 57.3037C11.2793 49.3668 20.9403 37.2617 36.4468 30.2143C52.0267 23.1336 67.4993 23.8158 71.1065 31.7527Z" fill="#EB5660"/>
<path d="M68.8351 26.7555C73.0435 36.0153 63.8501 49.1492 48.3437 56.1966C32.7638 63.2774 16.7902 61.4928 12.6152 52.3065C12.2144 51.4246 11.9606 50.476 11.7802 49.4939C10.2709 40.5149 19.1101 29.138 33.0732 22.792C47.1098 16.4126 61.4935 17.2351 67.2653 24.2769C67.8531 24.9851 68.4009 25.8002 68.8351 26.7555Z" fill="#5EC4BA"/>
<path d="M67.5658 24.9385C69.0752 33.9175 60.2359 45.2944 46.1993 51.6738C32.2362 58.0198 17.8526 57.1973 12.0808 50.1555C10.5714 41.1765 19.4106 29.7996 33.3737 23.4536C47.4103 17.0742 61.794 17.8967 67.5658 24.9385Z" fill="#78CCCA"/>
<path d="M37.569 27.2216C39.9673 29.7671 37.1276 36.2005 31.3284 41.5849C25.5627 47.0428 18.9018 49.3607 16.537 46.8887C14.1387 44.3432 16.9784 37.9098 22.7775 32.5254C28.5433 27.0675 35.2042 24.7496 37.569 27.2216Z" fill="#9BD7D5"/>
<path d="M48.5388 31.4579C48.2449 31.5915 48.4787 32.1059 48.7726 31.9723C49.1067 31.7318 48.9063 31.2909 48.5388 31.4579Z" fill="#5EC4BA"/>
<path d="M50.2292 25.8125C49.2739 26.2467 49.9419 27.7165 50.8972 27.2823C51.8526 26.8481 51.1846 25.3783 50.2292 25.8125Z" fill="#5EC4BA"/>
<path d="M42.5525 38.9663C41.5971 39.4005 42.2985 40.9438 43.2539 40.5096C44.2827 40.042 43.5813 38.4987 42.5525 38.9663Z" fill="#5EC4BA"/>
<path d="M31.1011 46.7424L31.0276 46.7758C30.7336 46.9094 30.9674 47.4238 31.2614 47.2902L31.3349 47.2568C31.6288 47.1232 31.395 46.6088 31.1011 46.7424Z" fill="#5EC4BA"/>
<path d="M39.1184 35.1184L39.0449 35.1518C38.7243 35.0316 38.5238 35.566 38.8445 35.6863C39.0249 35.693 39.1318 35.7331 39.3522 35.6329C39.7197 35.4659 39.4859 34.9514 39.1184 35.1184Z" fill="#5EC4BA"/>
<path d="M38.2107 23.5604C37.9167 23.694 38.1505 24.2085 38.4445 24.0749C38.7385 23.9413 38.5047 23.4268 38.2107 23.5604Z" fill="#7AC143"/>
<path d="M36.0649 47.3237L35.8445 47.4239C34.8891 47.8581 35.5905 49.4014 36.5459 48.9672L36.7663 48.867C37.7618 48.3259 37.0938 46.8561 36.0649 47.3237Z" fill="#5EC4BA"/>
<path d="M16.3032 47.3498C15.8356 47.2963 15.4615 47.6437 15.408 48.1113C15.3278 48.3251 15.3545 48.579 15.4547 48.7994C15.6551 49.2404 16.1562 49.3673 16.5236 49.2003C16.8911 49.0333 17.0514 48.6058 16.9579 48.2049C17.1183 47.7774 16.664 47.3631 16.3032 47.3498Z" fill="#5EC4BA"/>
<path d="M53.8894 40.1094C52.934 40.5436 53.602 42.0134 54.5574 41.5792C55.5128 41.145 54.9182 39.6418 53.8894 40.1094Z" fill="#5EC4BA"/>
</svg>
