<svg width="86" height="86" viewBox="0 0 86 86" fill="none" xmlns="http://www.w3.org/2000/svg">
<g clip-path="url(#clip0_268_85)">
<path d="M69.5461 55.2916C66.9268 64.589 52.3275 68.5998 36.9295 64.2619C21.4793 59.8296 11.1207 48.7876 13.7192 39.564C13.8647 39.0475 14.0832 38.5515 14.2809 38.1293C17.9329 29.9194 31.7927 26.5762 46.3879 30.688C60.9832 34.7998 71.0596 44.8862 69.8681 53.869C69.7641 54.238 69.6916 54.7751 69.5461 55.2916Z" fill="#F281A3"/>
<path d="M69.8155 53.7747C68.7956 55.7175 66.712 56.9623 64.7018 58.7854C62.6916 60.6084 60.2223 61.8242 57.3033 61.0019C55.8437 60.5907 54.072 60.7287 52.5611 61.3385C50.1542 62.3329 47.3294 62.015 45.0667 60.82C43.0751 59.7811 40.6253 59.2502 38.2281 59.3713C34.3405 59.4708 31.3794 58.2384 28.8447 55.7721C26.5603 53.5356 23.9429 51.9222 21.3781 50.9607C17.5935 49.5759 15.8616 47.3358 15.2751 43.8255C14.9399 41.6603 14.0943 39.9088 14.2075 38.1088C17.8595 29.8989 31.7193 26.5558 46.3146 30.6675C60.9306 34.7055 71.0071 44.792 69.8155 53.7747Z" fill="#EE5D7C"/>
<path d="M70.8763 50.569C70.1487 53.1516 67.7317 54.4618 65.3986 56.5921C63.3884 58.4151 60.9192 59.631 58.0001 58.8086C56.5406 58.3975 54.7688 58.5355 53.258 59.1452C50.7781 60.1191 48.0262 59.8217 45.7635 58.6268C43.7719 57.5878 41.3221 57.057 38.9249 57.1781C35.0373 57.2775 32.0762 56.0451 29.5415 53.5788C27.2572 51.3424 24.6397 49.7289 22.0542 48.8412C18.1966 47.4359 16.4854 45.122 15.899 41.6117C15.501 39.1102 14.4466 36.9813 15.0494 34.8414C17.2945 26.8723 31.582 23.9682 46.98 28.3061C62.378 32.6441 73.1214 42.5998 70.8763 50.569Z" fill="#AAD7D4"/>
<path d="M72.2899 45.5514C69.6707 54.8488 55.0922 58.7859 39.6941 54.4479C24.2232 50.0894 13.8646 39.0474 16.463 29.8238C16.7125 28.9384 17.1079 28.094 17.5763 27.2702C21.9584 19.8235 35.2141 16.9473 49.0796 20.8535C62.9451 24.7597 72.823 34.153 72.6734 42.7922C72.6637 43.6656 72.5602 44.5921 72.2899 45.5514Z" fill="#EE5D7C"/>
<path d="M72.6733 42.7924C68.3119 50.1654 55.0562 53.0416 41.1177 49.1148C27.1793 45.1881 17.4474 35.8359 17.5761 27.2705C21.9583 19.8237 35.214 16.9475 49.0795 20.8537C62.945 24.7599 72.8228 34.1533 72.6733 42.7924Z" fill="#F281A3"/>
<path d="M49.6054 26.816C49.7748 30.1291 43.8256 33.0725 36.3944 33.448C28.9632 33.8235 22.7597 31.5183 22.5696 28.279C22.4002 24.9658 28.3494 22.0224 35.7806 21.6469C43.2326 21.1977 49.4152 23.5766 49.6054 26.816Z" fill="#F2AEBD"/>
<path d="M54.8869 36.5866C54.595 36.5043 54.4495 37.0209 54.7414 37.1031C55.1271 37.1321 55.2518 36.6894 54.8869 36.5866Z" fill="#EE3686"/>
<path d="M59.5333 33.5154C58.5846 33.2481 58.1688 34.7239 59.1175 34.9912C60.0662 35.2584 60.482 33.7827 59.5333 33.5154Z" fill="#EE3686"/>
<path d="M46.0289 38.3919C45.0802 38.1246 44.6645 39.6004 45.6131 39.8676C46.614 40.2292 47.0506 38.6797 46.0289 38.3919Z" fill="#EE3686"/>
<path d="M33.0932 37.0573L33.0202 37.0368C32.7283 36.9545 32.5828 37.4711 32.8747 37.5533L32.9477 37.5739C33.2396 37.6561 33.3851 37.1396 33.0932 37.0573Z" fill="#EE3686"/>
<path d="M45.9107 33.5005C45.9107 33.5005 45.8377 33.4799 45.9107 33.5005C45.6812 33.1969 45.2123 33.463 45.3689 33.7461C45.4941 33.861 45.5463 33.9553 45.7652 34.017C46.1301 34.1198 46.2756 33.6033 45.9107 33.5005Z" fill="#EE3686"/>
<path d="M52.2927 24.5461C52.0008 24.4638 51.8552 24.9803 52.1471 25.0626C52.4391 25.1448 52.5846 24.6283 52.2927 24.5461Z" fill="#EE3686"/>
<path d="M36.2957 40.5082L36.0768 40.4465C35.1281 40.1793 34.6915 41.7288 35.6402 41.9961L35.8591 42.0578C36.9016 42.2718 37.3173 40.796 36.2957 40.5082Z" fill="#EE3686"/>
<path d="M22.1215 28.4711C21.8189 28.1469 21.3395 28.1712 21.0166 28.4784C20.8291 28.5849 20.6938 28.7857 20.6314 29.0071C20.5067 29.4498 20.7884 29.8477 21.1533 29.9505C21.5182 30.0533 21.8932 29.8404 22.0701 29.492C22.4452 29.2791 22.3718 28.7009 22.1215 28.4711Z" fill="#EE3686"/>
<path d="M53.4561 46.1394C52.5075 45.8721 52.0917 47.3479 53.0404 47.6152C54.0621 47.903 54.4778 46.4272 53.4561 46.1394Z" fill="#EE3686"/>
</g>
<defs>
<clipPath id="clip0_268_85">
<rect width="58" height="45" fill="white" transform="translate(21.2026 13) rotate(15.7336)"/>
</clipPath>
</defs>
</svg>
