<svg width="86" height="86" viewBox="0 0 86 86" fill="none" xmlns="http://www.w3.org/2000/svg">
<g clip-path="url(#clip0_268_86)">
<path d="M67.9309 36.2843C71.3432 44.0553 63.5592 54.9772 50.5459 60.6915C37.4437 66.3712 24.135 64.7115 20.7497 57.0021C20.5601 56.5704 20.4322 56.1116 20.3314 55.7145C18.2383 48.0998 25.8885 38.0459 38.2235 32.6295C50.5584 27.213 63.1376 28.384 67.3546 35.1395C67.4901 35.4479 67.7413 35.8525 67.9309 36.2843Z" fill="#F7AD1A"/>
<path d="M67.266 35.1052C67.6542 36.9946 66.9203 39.0089 66.5609 41.3737C66.2015 43.7385 65.1863 45.9499 62.7193 47.0332C61.4858 47.5748 60.3456 48.664 59.6492 49.9262C58.5527 51.9526 56.4333 53.3247 54.2084 53.7867C52.2574 54.202 50.2763 55.2191 48.6968 56.6483C46.081 58.9004 43.3553 59.7295 40.2308 59.483C37.4072 59.2516 34.704 59.6294 32.4024 60.4193C29.0253 61.6079 26.5793 61.0636 24.2083 59.0149C22.7641 57.7363 21.2011 57.0249 20.2698 55.7418C18.1767 48.1271 25.8269 38.0732 38.1619 32.6568C50.4697 27.1787 63.0489 28.3496 67.266 35.1052Z" fill="#EE8034"/>
<path d="M66.1976 32.337C67.1454 34.4957 66.2189 36.7417 65.81 39.4961C65.4506 41.8609 64.4354 44.0723 61.9684 45.1556C60.7349 45.6972 59.5947 46.7864 58.8983 48.0486C57.7401 50.1021 55.6823 51.4471 53.4575 51.9091C51.5064 52.3244 49.5253 53.3415 47.9459 54.7707C45.3301 57.0228 42.6043 57.8519 39.4799 57.6054C36.6562 57.374 33.953 57.7518 31.6786 58.6034C28.2398 59.8191 25.7667 59.213 23.3957 57.1644C21.7198 55.6933 19.8018 54.8435 19.0164 53.0549C16.0915 46.394 24.2817 36.3973 37.2951 30.6829C50.3085 24.9686 63.2727 25.6762 66.1976 32.337Z" fill="#F7ADBB"/>
<path d="M64.6221 28.2469C68.0345 36.0179 60.2234 46.8781 47.21 52.5924C34.1967 58.3068 20.8879 56.647 17.5026 48.9377C17.1776 48.1976 16.976 47.4033 16.8361 46.582C15.6381 39.1628 23.1349 29.7648 34.8531 24.6192C46.6329 19.4465 58.6254 20.2865 63.3659 26.2237C63.8488 26.8209 64.2972 27.5068 64.6221 28.2469Z" fill="#EE8034"/>
<path d="M63.0728 26.0586C64.2091 33.5048 56.7123 42.9028 44.9324 48.0755C33.2142 53.2211 21.2218 52.3811 16.5084 46.5056C15.345 38.9977 22.8418 29.5997 34.56 24.4541C46.3399 19.2814 58.3323 20.1214 63.0728 26.0586Z" fill="#F7AD1A"/>
<path d="M38.2637 28.1977C40.2375 30.3472 37.7994 35.6846 32.9032 40.1152C28.007 44.5458 22.4517 46.4702 20.505 44.3824C18.5312 42.2328 20.9693 36.8954 25.8655 32.4648C30.7346 27.9726 36.317 26.1098 38.2637 28.1977Z" fill="#FFC928"/>
<path d="M47.3711 31.8494C47.1244 31.9577 47.3139 32.3895 47.5606 32.2811C47.8419 32.0841 47.6794 31.714 47.3711 31.8494Z" fill="#EE8034"/>
<path d="M48.8421 27.1573C48.0403 27.5094 48.609 28.8046 49.4108 28.4525C50.2126 28.1004 49.6438 26.8053 48.8421 27.1573Z" fill="#EE8034"/>
<path d="M42.2957 38.0509C41.4939 38.403 42.0355 39.6365 42.8373 39.2844C43.6391 38.9323 43.1591 37.6717 42.2957 38.0509Z" fill="#EE8034"/>
<path d="M32.6583 44.4161L32.5966 44.4432C32.3499 44.5515 32.5395 44.9832 32.7862 44.8749L32.8479 44.8478C33.0946 44.7395 32.905 44.3078 32.6583 44.4161Z" fill="#EE8034"/>
<path d="M39.4721 34.8034C39.4721 34.8034 39.4104 34.8305 39.4721 34.8034C39.1441 34.7267 38.9711 35.1705 39.2374 35.2742C39.3878 35.2817 39.4766 35.3163 39.6616 35.2351C39.97 35.0997 39.7804 34.668 39.4721 34.8034Z" fill="#EE8034"/>
<path d="M38.8379 25.1502C38.5912 25.2585 38.7807 25.6903 39.0274 25.5819C39.2741 25.4736 39.0846 25.0419 38.8379 25.1502Z" fill="#EE8034"/>
<path d="M36.7937 44.9545L36.6087 45.0358C35.8069 45.3878 36.3485 46.6213 37.1503 46.2692L37.3353 46.188C38.1988 45.8089 37.6571 44.5754 36.7937 44.9545Z" fill="#EE8034"/>
<path d="M20.3049 44.7647C19.9153 44.7151 19.5994 45.0009 19.5498 45.3906C19.4806 45.5681 19.5002 45.7802 19.5814 45.9652C19.7439 46.3353 20.1606 46.4465 20.469 46.3111C20.7774 46.1757 20.9157 45.8207 20.842 45.4852C20.9804 45.1302 20.6058 44.7797 20.3049 44.7647Z" fill="#EE8034"/>
<path d="M51.7429 39.1256C50.9412 39.4777 51.5099 40.7728 52.3117 40.4208C53.148 39.9799 52.6064 38.7464 51.7429 39.1256Z" fill="#EE8034"/>
</g>
<defs>
<clipPath id="clip0_268_86">
<rect width="51.7316" height="39.5397" fill="white" transform="translate(11 34.7993) rotate(-23.7069)"/>
</clipPath>
</defs>
</svg>
